<?xml version="1.0" encoding="utf-8"?>
<svg version="1.1" xmlns:xlink="http://www.w3.org/1999/xlink" width="116px" height="77px" xmlns="http://www.w3.org/2000/svg">
  <g transform="matrix(1 0 0 1 -972 -603 )">
    <path d="M 115.328703703704 35.9466840052016  C 115.776234567901 36.6142175986129  116 37.381881231036  116 38.2496749024707  C 116 39.1842219332466  115.776234567901 39.9852622453403  115.328703703704 40.6527958387516  L 89.5509259259259 76.0988296488947  C 88.8348765432099 77.0333766796706  88.0516975308642 77.233636757694  87.2013888888889 76.6996098829649  C 86.3510802469136 76.0988296488947  85.9259259259259 75.1309059384482  86 73.7958387516255  L 86 51  L 2.14814814814815 51  C 1.52160493827161 51.3667100130039  1.00694444444444 51.0663198959688  0.604166666666667 50.4655396618986  C 0.201388888888889 49.8647594278283  0 49.0970957954053  0 48.1625487646294  L 0 28.9375812743823  C 0 28.0030342436064  0.201388888888889 27.2353706111834  0.604166666666667 26.6345903771131  C 1.00694444444444 26.0338101430429  1.52160493827161 25.7334200260078  2.14814814814815 26  L 86 26  L 86 3.30429128738622  C 85.9259259259259 1.90247074122237  86.3510802469136 0.934547030775895  87.2013888888889 0.400520156046816  C 88.0516975308642 -0.13350671868228  88.8348765432099 0.0333766796705616  89.5509259259259 0.901170351105333  L 115.328703703704 35.9466840052016  Z " fill-rule="nonzero" fill="#00bfbf" stroke="none" transform="matrix(1 0 0 1 972 603 )" />
  </g>
</svg>