<?xml version="1.0" encoding="utf-8"?>
<svg version="1.1" xmlns:xlink="http://www.w3.org/1999/xlink" width="124px" height="73px" xmlns="http://www.w3.org/2000/svg">
  <g transform="matrix(1 0 0 1 -1460 -599 )">
    <path d="M 123.282407407407 34.0793237971391  C 123.760802469136 34.7121803207629  124 35.4399653229302  124 36.2626788036411  C 124 37.1486779367143  123.760802469136 37.9081057650628  123.282407407407 38.5409622886866  L 95.7268518518518 72.1456436931079  C 94.9614197530864 73.0316428261812  94.1242283950617 73.2214997832683  93.2152777777778 72.7152145643693  C 92.3063271604938 72.1456436931079  91.8518518518518 71.2280017338535  91 69.962288686606  L 91 48  L 2.2962962962963 48  C 1.62654320987654 48.6983094928479  1.07638888888889 48.4135240572172  0.645833333333333 47.8439531859558  C 0.215277777777778 47.2743823146944  0 46.5465973125271  0 45.6605981794538  L 0 27.4343302990897  C 0 26.5483311660165  0.215277777777778 25.8205461638492  0.645833333333333 25.2509752925878  C 1.07638888888889 24.6814044213264  1.62654320987654 24.3966189856957  2.2962962962963 25  L 91 25  L 91 3.13263979193759  C 91.8518518518518 1.8036410923277  92.3063271604938 0.885999133073251  93.2152777777778 0.379713914174254  C 94.1242283950617 -0.126571304724759  94.9614197530864 0.0316428261811817  95.7268518518518 0.854356306892069  L 123.282407407407 34.0793237971391  Z " fill-rule="nonzero" fill="#00bfbf" stroke="none" transform="matrix(1 0 0 1 1460 599 )" />
  </g>
</svg>