<?xml version="1.0" encoding="utf-8"?>
<svg version="1.1" xmlns:xlink="http://www.w3.org/1999/xlink" width="12px" height="13px" xmlns="http://www.w3.org/2000/svg">
  <g transform="matrix(1 0 0 1 -131 -319 )">
    <path d="M 7.4140625 8.03190104166667  C 7.8046875 7.60872395833333  8 7.09809027777778  8 6.5  C 8 5.90190972222222  7.8046875 5.39127604166667  7.4140625 4.96809895833333  C 7.0234375 4.544921875  6.55208333333333 4.33333333333333  6 4.33333333333333  C 5.44791666666667 4.33333333333333  4.9765625 4.544921875  4.5859375 4.96809895833333  C 4.1953125 5.39127604166667  4 5.90190972222222  4 6.5  C 4 7.09809027777778  4.1953125 7.60872395833333  4.5859375 8.03190104166667  C 4.9765625 8.455078125  5.44791666666667 8.66666666666667  6 8.66666666666667  C 6.55208333333333 8.66666666666667  7.0234375 8.455078125  7.4140625 8.03190104166667  Z M 11.9375 5.37858072916667  C 11.9791666666667 5.43782552083333  12 5.50412326388889  12 5.57747395833333  L 12 7.45638020833333  C 12 7.52408854166667  11.9791666666667 7.58897569444444  11.9375 7.65104166666667  C 11.8958333333333 7.71310763888889  11.84375 7.74978298611111  11.78125 7.76106770833333  L 10.3359375 7.998046875  C 10.2369791666667 8.302734375  10.1354166666667 8.55946180555556  10.03125 8.76822916666667  C 10.2135416666667 9.05034722222222  10.4921875 9.43967013888889  10.8671875 9.93619791666667  C 10.9192708333333 10.00390625  10.9453125 10.0744357638889  10.9453125 10.1477864583333  C 10.9453125 10.2211371527778  10.921875 10.2860243055556  10.875 10.3424479166667  C 10.734375 10.5512152777778  10.4765625 10.8559027777778  10.1015625 11.2565104166667  C 9.7265625 11.6571180555556  9.48177083333333 11.857421875  9.3671875 11.857421875  C 9.3046875 11.857421875  9.23697916666667 11.83203125  9.1640625 11.78125  L 8.0859375 10.8671875  C 7.85677083333333 10.9969618055556  7.61979166666667 11.1041666666667  7.375 11.1888020833333  C 7.29166666666667 11.9561631944444  7.21614583333333 12.4809027777778  7.1484375 12.7630208333333  C 7.11197916666667 12.9210069444444  7.01822916666667 13  6.8671875 13  L 5.1328125 13  C 5.05989583333333 13  4.99609375 12.9760199652778  4.94140625 12.9280598958333  C 4.88671875 12.8800998263889  4.85677083333333 12.8194444444444  4.8515625 12.74609375  L 4.6328125 11.1888020833333  C 4.37760416666667 11.0985243055556  4.14322916666667 10.994140625  3.9296875 10.8756510416667  L 2.828125 11.78125  C 2.77604166666667 11.83203125  2.7109375 11.857421875  2.6328125 11.857421875  C 2.55989583333333 11.857421875  2.49479166666667 11.8263888888889  2.4375 11.7643229166667  C 1.78125 11.12109375  1.3515625 10.6471354166667  1.1484375 10.3424479166667  C 1.11197916666667 10.2860243055556  1.09375 10.2211371527778  1.09375 10.1477864583333  C 1.09375 10.080078125  1.11458333333333 10.0151909722222  1.15625 9.953125  C 1.234375 9.83463541666667  1.3671875 9.64702690972222  1.5546875 9.39029947916667  C 1.7421875 9.13357204861111  1.8828125 8.93467881944444  1.9765625 8.79361979166667  C 1.8359375 8.51150173611111  1.72916666666667 8.23220486111111  1.65625 7.95572916666667  L 0.2265625 7.72721354166667  C 0.158854166666667 7.71592881944444  0.104166666666667 7.6806640625  0.0625 7.62141927083333  C 0.0208333333333333 7.56217447916667  0 7.49587673611111  0 7.42252604166667  L 0 5.54361979166667  C 0 5.47591145833333  0.0208333333333333 5.41102430555556  0.0625 5.34895833333333  C 0.104166666666667 5.28689236111111  0.153645833333333 5.25021701388889  0.2109375 5.23893229166667  L 1.6640625 5.001953125  C 1.73697916666667 4.74240451388889  1.83854166666667 4.48285590277778  1.96875 4.22330729166667  C 1.76041666666667 3.90169270833333  1.48177083333333 3.51236979166667  1.1328125 3.05533854166667  C 1.08072916666667 2.98763020833333  1.0546875 2.919921875  1.0546875 2.85221354166667  C 1.0546875 2.79578993055555  1.078125 2.73090277777778  1.125 2.65755208333333  C 1.26041666666667 2.45442708333333  1.51692708333333 2.15115017361111  1.89453125 1.74772135416667  C 2.27213541666667 1.34429253472222  2.51822916666667 1.142578125  2.6328125 1.142578125  C 2.70052083333333 1.142578125  2.76822916666667 1.17078993055555  2.8359375 1.22721354166667  L 3.9140625 2.1328125  C 4.14322916666667 2.00303819444444  4.38020833333333 1.89583333333333  4.625 1.81119791666667  C 4.70833333333333 1.04383680555555  4.78385416666667 0.519097222222221  4.8515625 0.236979166666666  C 4.88802083333333 0.0789930555555549  4.98177083333333 0  5.1328125 0  L 6.8671875 0  C 6.94010416666667 0  7.00390625 0.0239800347222211  7.05859375 0.0719401041666662  C 7.11328125 0.11990017361111  7.14322916666667 0.180555555555555  7.1484375 0.25390625  L 7.3671875 1.81119791666667  C 7.62239583333333 1.90147569444444  7.85677083333333 2.005859375  8.0703125 2.12434895833333  L 9.1796875 1.21875  C 9.2265625 1.16796875  9.2890625 1.142578125  9.3671875 1.142578125  C 9.43489583333333 1.142578125  9.5 1.17078993055555  9.5625 1.22721354166667  C 10.234375 1.89865451388889  10.6640625 2.37825520833333  10.8515625 2.666015625  C 10.8880208333333 2.71115451388889  10.90625 2.77322048611111  10.90625 2.85221354166667  C 10.90625 2.919921875  10.8854166666667 2.98480902777778  10.84375 3.046875  C 10.765625 3.16536458333333  10.6328125 3.35297309027778  10.4453125 3.60970052083333  C 10.2578125 3.86642795138889  10.1171875 4.06532118055556  10.0234375 4.20638020833333  C 10.1588541666667 4.48849826388889  10.265625 4.76497395833333  10.34375 5.03580729166667  L 11.7734375 5.27278645833333  C 11.8411458333333 5.28407118055556  11.8958333333333 5.3193359375  11.9375 5.37858072916667  Z " fill-rule="nonzero" fill="#0000ff" stroke="none" transform="matrix(1 0 0 1 131 319 )" />
  </g>
</svg>