<?xml version="1.0" encoding="utf-8"?>
<svg version="1.1" xmlns:xlink="http://www.w3.org/1999/xlink" width="50px" height="28px" xmlns="http://www.w3.org/2000/svg">
  <defs>
    <mask fill="white" id="clip22">
      <path d="M 0 25  L 0 3  C 0 1.31999999999999  1.46666666666672 0  3.33333333333333 0  L 46.6666666666667 0  C 48.5333333333333 0  50 1.31999999999999  50 3  L 50 25  C 50 26.68  48.5333333333333 28  46.6666666666667 28  L 32.022792022792 28  L 3.33333333333333 28  C 1.46666666666672 28  0 26.68  0 25  Z " fill-rule="evenodd" />
    </mask>
  </defs>
  <g transform="matrix(1 0 0 1 -1837 -244 )">
    <path d="M 0 25  L 0 3  C 0 1.31999999999999  1.46666666666672 0  3.33333333333333 0  L 46.6666666666667 0  C 48.5333333333333 0  50 1.31999999999999  50 3  L 50 25  C 50 26.68  48.5333333333333 28  46.6666666666667 28  L 32.022792022792 28  L 3.33333333333333 28  C 1.46666666666672 28  0 26.68  0 25  Z " fill-rule="nonzero" fill="#ffffff" stroke="none" transform="matrix(1 0 0 1 1837 244 )" />
    <path d="M 0 25  L 0 3  C 0 1.31999999999999  1.46666666666672 0  3.33333333333333 0  L 46.6666666666667 0  C 48.5333333333333 0  50 1.31999999999999  50 3  L 50 25  C 50 26.68  48.5333333333333 28  46.6666666666667 28  L 32.022792022792 28  L 3.33333333333333 28  C 1.46666666666672 28  0 26.68  0 25  Z " stroke-width="2" stroke="#e4e4e4" fill="none" transform="matrix(1 0 0 1 1837 244 )" mask="url(#clip22)" />
  </g>
</svg>