<?xml version="1.0" encoding="utf-8"?>
<svg version="1.1" xmlns:xlink="http://www.w3.org/1999/xlink" width="55px" height="28px" xmlns="http://www.w3.org/2000/svg">
  <g transform="matrix(1 0 0 1 -1775 -244 )">
    <path d="M 1776 247  A 2 2 0 0 1 1778 245 L 1827 245  A 2 2 0 0 1 1829 247 L 1829 269  A 2 2 0 0 1 1827 271 L 1778 271  A 2 2 0 0 1 1776 269 L 1776 247  Z " fill-rule="nonzero" fill="#f0f7ff" stroke="none" />
    <path d="M 1775.5 247  A 2.5 2.5 0 0 1 1778 244.5 L 1827 244.5  A 2.5 2.5 0 0 1 1829.5 247 L 1829.5 269  A 2.5 2.5 0 0 1 1827 271.5 L 1778 271.5  A 2.5 2.5 0 0 1 1775.5 269 L 1775.5 247  Z " stroke-width="1" stroke="#7abbff" fill="none" stroke-opacity="0.996078431372549" />
  </g>
</svg>