<?xml version="1.0" encoding="utf-8"?>
<svg version="1.1" xmlns:xlink="http://www.w3.org/1999/xlink" width="58px" height="28px" xmlns="http://www.w3.org/2000/svg">
  <g transform="matrix(1 0 0 1 -1710 -244 )">
    <path d="M 1711 247  A 2 2 0 0 1 1713 245 L 1765 245  A 2 2 0 0 1 1767 247 L 1767 269  A 2 2 0 0 1 1765 271 L 1713 271  A 2 2 0 0 1 1711 269 L 1711 247  Z " fill-rule="nonzero" fill="#f0f7ff" stroke="none" />
    <path d="M 1710.5 247  A 2.5 2.5 0 0 1 1713 244.5 L 1765 244.5  A 2.5 2.5 0 0 1 1767.5 247 L 1767.5 269  A 2.5 2.5 0 0 1 1765 271.5 L 1713 271.5  A 2.5 2.5 0 0 1 1710.5 269 L 1710.5 247  Z " stroke-width="1" stroke="#7abbff" fill="none" stroke-opacity="0.996078431372549" />
  </g>
</svg>