<?xml version="1.0" encoding="utf-8"?>
<svg version="1.1" xmlns:xlink="http://www.w3.org/1999/xlink" width="103px" height="28px" xmlns="http://www.w3.org/2000/svg">
  <defs>
    <mask fill="white" id="clip27">
      <path d="M 0 25  L 0 3  C 0 1.31999999999999  2.09169230769239 0  4.75384615384615 0  L 61.6807278742762 0  L 98.2461538461538 0  C 100.908307692308 0  103 1.31999999999999  103 3  L 103 25  C 103 26.68  100.908307692308 28  98.2461538461538 28  L 4.75384615384615 28  C 2.09169230769239 28  0 26.68  0 25  Z " fill-rule="evenodd" />
    </mask>
  </defs>
  <g transform="matrix(1 0 0 1 -1543 -244 )">
    <path d="M 0 25  L 0 3  C 0 1.31999999999999  2.09169230769239 0  4.75384615384615 0  L 61.6807278742762 0  L 98.2461538461538 0  C 100.908307692308 0  103 1.31999999999999  103 3  L 103 25  C 103 26.68  100.908307692308 28  98.2461538461538 28  L 4.75384615384615 28  C 2.09169230769239 28  0 26.68  0 25  Z " fill-rule="nonzero" fill="#f0f7ff" stroke="none" transform="matrix(1 0 0 1 1543 244 )" />
    <path d="M 0 25  L 0 3  C 0 1.31999999999999  2.09169230769239 0  4.75384615384615 0  L 61.6807278742762 0  L 98.2461538461538 0  C 100.908307692308 0  103 1.31999999999999  103 3  L 103 25  C 103 26.68  100.908307692308 28  98.2461538461538 28  L 4.75384615384615 28  C 2.09169230769239 28  0 26.68  0 25  Z " stroke-width="2" stroke="#7abbff" fill="none" stroke-opacity="0.996078431372549" transform="matrix(1 0 0 1 1543 244 )" mask="url(#clip27)" />
  </g>
</svg>