<?xml version="1.0" encoding="utf-8"?>
<svg version="1.1" xmlns:xlink="http://www.w3.org/1999/xlink" width="65px" height="28px" xmlns="http://www.w3.org/2000/svg">
  <g transform="matrix(1 0 0 1 -1465 -245 )">
    <path d="M 1465.5 248  A 2.5 2.5 0 0 1 1468 245.5 L 1527 245.5  A 2.5 2.5 0 0 1 1529.5 248 L 1529.5 270  A 2.5 2.5 0 0 1 1527 272.5 L 1468 272.5  A 2.5 2.5 0 0 1 1465.5 270 L 1465.5 248  Z " fill-rule="nonzero" fill="#7ebfd9" stroke="none" />
    <path d="M 1465.5 248  A 2.5 2.5 0 0 1 1468 245.5 L 1527 245.5  A 2.5 2.5 0 0 1 1529.5 248 L 1529.5 270  A 2.5 2.5 0 0 1 1527 272.5 L 1468 272.5  A 2.5 2.5 0 0 1 1465.5 270 L 1465.5 248  Z " stroke-width="1" stroke="#e4e4e4" fill="none" />
  </g>
</svg>