<?xml version="1.0" encoding="utf-8"?>
<svg version="1.1" xmlns:xlink="http://www.w3.org/1999/xlink" width="56px" height="28px" xmlns="http://www.w3.org/2000/svg">
  <g transform="matrix(1 0 0 1 -1767 -244 )">
    <path d="M 1768 247  A 2 2 0 0 1 1770 245 L 1820 245  A 2 2 0 0 1 1822 247 L 1822 269  A 2 2 0 0 1 1820 271 L 1770 271  A 2 2 0 0 1 1768 269 L 1768 247  Z " fill-rule="nonzero" fill="#f0f7ff" stroke="none" />
    <path d="M 1767.5 247  A 2.5 2.5 0 0 1 1770 244.5 L 1820 244.5  A 2.5 2.5 0 0 1 1822.5 247 L 1822.5 269  A 2.5 2.5 0 0 1 1820 271.5 L 1770 271.5  A 2.5 2.5 0 0 1 1767.5 269 L 1767.5 247  Z " stroke-width="1" stroke="#7abbff" fill="none" stroke-opacity="0.996078431372549" />
  </g>
</svg>