<?xml version="1.0" encoding="utf-8"?>
<svg version="1.1" xmlns:xlink="http://www.w3.org/1999/xlink" width="39px" height="29px" xmlns="http://www.w3.org/2000/svg">
  <g transform="matrix(1 0 0 1 -1419 -244 )">
    <path d="M 0.97119140625 20.130078125  C 0.32373046875 18.340234375  0 16.4635416666667  0 14.5  C 0 12.5364583333333  0.32373046875 10.659765625  0.97119140625 8.869921875  C 1.61865234375 7.080078125  2.485107421875 5.539453125  3.570556640625 4.248046875  C 4.656005859375 2.956640625  5.950927734375 1.92578125  7.455322265625 1.15546875  C 8.959716796875 0.385156250000001  10.537109375 0  12.1875 0  L 26.8125 0  C 28.462890625 0  30.040283203125 0.385156250000001  31.544677734375 1.15546875  C 33.049072265625 1.92578125  34.343994140625 2.956640625  35.429443359375 4.248046875  C 36.514892578125 5.539453125  37.38134765625 7.080078125  38.02880859375 8.869921875  C 38.67626953125 10.659765625  39 12.5364583333333  39 14.5  C 39 16.4635416666667  38.67626953125 18.340234375  38.02880859375 20.130078125  C 37.38134765625 21.919921875  36.514892578125 23.460546875  35.429443359375 24.751953125  C 34.343994140625 26.043359375  33.049072265625 27.07421875  31.544677734375 27.84453125  C 30.040283203125 28.61484375  28.462890625 29  26.8125 29  L 12.1875 29  C 10.537109375 29  8.959716796875 28.61484375  7.455322265625 27.84453125  C 5.950927734375 27.07421875  4.656005859375 26.043359375  3.570556640625 24.751953125  C 2.485107421875 23.460546875  1.61865234375 21.919921875  0.97119140625 20.130078125  Z M 23.032470703125 25.182421875  C 24.232177734375 25.794140625  25.4921875 26.1  26.8125 26.1  C 28.1328125 26.1  29.392822265625 25.794140625  30.592529296875 25.182421875  C 31.792236328125 24.570703125  32.830078125 23.74375  33.7060546875 22.7015625  C 34.58203125 21.659375  35.277099609375 20.424609375  35.791259765625 18.997265625  C 36.305419921875 17.569921875  36.5625 16.0708333333333  36.5625 14.5  C 36.5625 12.9291666666667  36.305419921875 11.430078125  35.791259765625 10.002734375  C 35.277099609375 8.575390625  34.58203125 7.340625  33.7060546875 6.2984375  C 32.830078125 5.25625  31.792236328125 4.429296875  30.592529296875 3.817578125  C 29.392822265625 3.205859375  28.1328125 2.9  26.8125 2.9  C 25.4921875 2.9  24.232177734375 3.205859375  23.032470703125 3.817578125  C 21.832763671875 4.429296875  20.794921875 5.25625  19.9189453125 6.2984375  C 19.04296875 7.340625  18.347900390625 8.575390625  17.833740234375 10.002734375  C 17.319580078125 11.430078125  17.0625 12.9291666666667  17.0625 14.5  C 17.0625 16.0708333333333  17.319580078125 17.569921875  17.833740234375 18.997265625  C 18.347900390625 20.424609375  19.04296875 21.659375  19.9189453125 22.7015625  C 20.794921875 23.74375  21.832763671875 24.570703125  23.032470703125 25.182421875  Z " fill-rule="nonzero" fill="#000000" stroke="none" transform="matrix(1 0 0 1 1419 244 )" />
  </g>
</svg>