<?xml version="1.0" encoding="utf-8"?>
<svg version="1.1" xmlns:xlink="http://www.w3.org/1999/xlink" width="59px" height="28px" xmlns="http://www.w3.org/2000/svg">
  <defs>
    <mask fill="white" id="clip29">
      <path d="M 0 25  L 0 3  C 0 1.31999999999999  1.19815384615389 0  2.72307692307692 0  L 35.3316790736145 0  L 56.2769230769231 0  C 57.8018461538461 0  59 1.31999999999999  59 3  L 59 25  C 59 26.68  57.8018461538461 28  56.2769230769231 28  L 2.72307692307692 28  C 1.19815384615389 28  0 26.68  0 25  Z " fill-rule="evenodd" />
    </mask>
  </defs>
  <g transform="matrix(1 0 0 1 -721 -244 )">
    <path d="M 0 25  L 0 3  C 0 1.31999999999999  1.19815384615389 0  2.72307692307692 0  L 35.3316790736145 0  L 56.2769230769231 0  C 57.8018461538461 0  59 1.31999999999999  59 3  L 59 25  C 59 26.68  57.8018461538461 28  56.2769230769231 28  L 2.72307692307692 28  C 1.19815384615389 28  0 26.68  0 25  Z " fill-rule="nonzero" fill="#ffffff" stroke="none" transform="matrix(1 0 0 1 721 244 )" />
    <path d="M 0 25  L 0 3  C 0 1.31999999999999  1.19815384615389 0  2.72307692307692 0  L 35.3316790736145 0  L 56.2769230769231 0  C 57.8018461538461 0  59 1.31999999999999  59 3  L 59 25  C 59 26.68  57.8018461538461 28  56.2769230769231 28  L 2.72307692307692 28  C 1.19815384615389 28  0 26.68  0 25  Z " stroke-width="2" stroke="#e4e4e4" fill="none" transform="matrix(1 0 0 1 721 244 )" mask="url(#clip29)" />
  </g>
</svg>