<?xml version="1.0" encoding="utf-8"?>
<svg version="1.1" xmlns:xlink="http://www.w3.org/1999/xlink" width="20px" height="750px" xmlns="http://www.w3.org/2000/svg">
  <defs>
    <mask fill="white" id="clip25">
      <path d="M 0.188216039279869 0  C 0.0828150572831424 0  0 165  0 375  C 0 585  0.0828150572831424 750  0.188216039279869 750  L 19.8117839607201 750  C 19.9171849427169 750  20 585  20 375  C 20 165  19.9171849427169 0  19.8117839607201 0  L 0.188216039279869 0  Z " fill-rule="evenodd" />
    </mask>
  </defs>
  <g transform="matrix(1 0 0 1 -1884 -295 )">
    <path d="M 0.188216039279869 0  C 0.0828150572831424 0  0 165  0 375  C 0 585  0.0828150572831424 750  0.188216039279869 750  L 19.8117839607201 750  C 19.9171849427169 750  20 585  20 375  C 20 165  19.9171849427169 0  19.8117839607201 0  L 0.188216039279869 0  Z " fill-rule="nonzero" fill="#ffffff" stroke="none" transform="matrix(1 0 0 1 1884 295 )" />
    <path d="M 0.188216039279869 0  C 0.0828150572831424 0  0 165  0 375  C 0 585  0.0828150572831424 750  0.188216039279869 750  L 19.8117839607201 750  C 19.9171849427169 750  20 585  20 375  C 20 165  19.9171849427169 0  19.8117839607201 0  L 0.188216039279869 0  Z " stroke-width="2" stroke="#797979" fill="none" transform="matrix(1 0 0 1 1884 295 )" mask="url(#clip25)" />
  </g>
</svg>