<?xml version="1.0" encoding="utf-8"?>
<svg version="1.1" xmlns:xlink="http://www.w3.org/1999/xlink" width="80px" height="35px" xmlns="http://www.w3.org/2000/svg">
  <g transform="matrix(1 0 0 1 -1760 -136 )">
    <path d="M 1760.5 141  A 4.5 4.5 0 0 1 1765 136.5 L 1835 136.5  A 4.5 4.5 0 0 1 1839.5 141 L 1839.5 166  A 4.5 4.5 0 0 1 1835 170.5 L 1765 170.5  A 4.5 4.5 0 0 1 1760.5 166 L 1760.5 141  Z " fill-rule="nonzero" fill="#f9f9f9" stroke="none" fill-opacity="0" />
    <path d="M 1760.5 141  A 4.5 4.5 0 0 1 1765 136.5 L 1835 136.5  A 4.5 4.5 0 0 1 1839.5 141 L 1839.5 166  A 4.5 4.5 0 0 1 1835 170.5 L 1765 170.5  A 4.5 4.5 0 0 1 1760.5 166 L 1760.5 141  Z " stroke-width="1" stroke="#e4e4e4" fill="none" />
  </g>
</svg>