<?xml version="1.0" encoding="utf-8"?>
<svg version="1.1" xmlns:xlink="http://www.w3.org/1999/xlink" width="22px" height="20px" xmlns="http://www.w3.org/2000/svg">
  <g transform="matrix(1 0 0 1 -1425 -320 )">
    <path d="M 13.5924479166667 12.3567708333333  C 14.30859375 11.7057291666667  14.6666666666667 10.9201388888889  14.6666666666667 10  C 14.6666666666667 9.07986111111111  14.30859375 8.29427083333333  13.5924479166667 7.64322916666667  C 12.8763020833333 6.9921875  12.0121527777778 6.66666666666667  11 6.66666666666667  C 9.98784722222222 6.66666666666667  9.12369791666667 6.9921875  8.40755208333333 7.64322916666667  C 7.69140625 8.29427083333333  7.33333333333333 9.07986111111111  7.33333333333333 10  C 7.33333333333333 10.9201388888889  7.69140625 11.7057291666667  8.40755208333333 12.3567708333333  C 9.12369791666667 13.0078125  9.98784722222222 13.3333333333333  11 13.3333333333333  C 12.0121527777778 13.3333333333333  12.8763020833333 13.0078125  13.5924479166667 12.3567708333333  Z M 21.8854166666667 8.27473958333333  C 21.9618055555556 8.36588541666667  22 8.46788194444444  22 8.58072916666667  L 22 11.4713541666667  C 22 11.5755208333333  21.9618055555556 11.6753472222222  21.8854166666667 11.7708333333333  C 21.8090277777778 11.8663194444444  21.7135416666667 11.9227430555556  21.5989583333333 11.9401041666667  L 18.94921875 12.3046875  C 18.7677951388889 12.7734375  18.5815972222222 13.1684027777778  18.390625 13.4895833333333  C 18.7248263888889 13.9236111111111  19.2356770833333 14.5225694444444  19.9231770833333 15.2864583333333  C 20.0186631944444 15.390625  20.06640625 15.4991319444444  20.06640625 15.6119791666667  C 20.06640625 15.7248263888889  20.0234375 15.8246527777778  19.9375 15.9114583333333  C 19.6796875 16.2326388888889  19.20703125 16.7013888888889  18.51953125 17.3177083333333  C 17.83203125 17.9340277777778  17.3832465277778 18.2421875  17.1731770833333 18.2421875  C 17.05859375 18.2421875  16.9344618055556 18.203125  16.80078125 18.125  L 14.82421875 16.71875  C 14.4040798611111 16.9184027777778  13.9696180555556 17.0833333333333  13.5208333333333 17.2135416666667  C 13.3680555555556 18.3940972222222  13.2296006944444 19.2013888888889  13.10546875 19.6354166666667  C 13.0386284722222 19.8784722222222  12.8667534722222 20  12.58984375 20  L 9.41015625 20  C 9.27647569444445 20  9.15950520833333 19.9631076388889  9.05924479166667 19.8893229166667  C 8.958984375 19.8155381944444  8.90407986111111 19.7222222222222  8.89453125 19.609375  L 8.49348958333333 17.2135416666667  C 8.02560763888889 17.0746527777778  7.59592013888889 16.9140625  7.20442708333333 16.7317708333333  L 5.18489583333333 18.125  C 5.08940972222222 18.203125  4.97005208333333 18.2421875  4.82682291666667 18.2421875  C 4.69314236111111 18.2421875  4.57378472222222 18.1944444444444  4.46875 18.0989583333333  C 3.265625 17.109375  2.47786458333333 16.3802083333333  2.10546875 15.9114583333333  C 2.03862847222222 15.8246527777778  2.00520833333333 15.7248263888889  2.00520833333333 15.6119791666667  C 2.00520833333333 15.5078125  2.04340277777778 15.4079861111111  2.11979166666667 15.3125  C 2.26302083333333 15.1302083333333  2.50651041666667 14.8415798611111  2.85026041666667 14.4466145833333  C 3.19401041666667 14.0516493055556  3.45182291666667 13.7456597222222  3.62369791666667 13.5286458333333  C 3.36588541666667 13.0946180555556  3.17013888888889 12.6649305555556  3.03645833333333 12.2395833333333  L 0.415364583333333 11.8880208333333  C 0.291232638888889 11.8706597222222  0.190972222222222 11.81640625  0.114583333333333 11.7252604166667  C 0.0381944444444444 11.6341145833333  0 11.5321180555556  0 11.4192708333333  L 0 8.52864583333333  C 0 8.42447916666667  0.0381944444444444 8.32465277777778  0.114583333333333 8.22916666666667  C 0.190972222222222 8.13368055555556  0.281684027777778 8.07725694444444  0.38671875 8.05989583333333  L 3.05078125 7.6953125  C 3.18446180555556 7.29600694444444  3.37065972222222 6.89670138888889  3.609375 6.49739583333333  C 3.22743055555556 6.00260416666667  2.71657986111111 5.40364583333333  2.07682291666667 4.70052083333333  C 1.98133680555556 4.59635416666667  1.93359375 4.4921875  1.93359375 4.38802083333333  C 1.93359375 4.30121527777778  1.9765625 4.20138888888889  2.0625 4.08854166666667  C 2.31076388888889 3.77604166666667  2.78103298611111 3.30946180555555  3.47330729166667 2.68880208333333  C 4.16558159722222 2.06814236111111  4.61675347222222 1.7578125  4.82682291666667 1.7578125  C 4.95095486111111 1.7578125  5.07508680555556 1.80121527777778  5.19921875 1.88802083333333  L 7.17578125 3.28125  C 7.59592013888889 3.08159722222222  8.03038194444445 2.91666666666667  8.47916666666667 2.78645833333333  C 8.63194444444445 1.60590277777778  8.77039930555556 0.798611111111109  8.89453125 0.364583333333333  C 8.96137152777778 0.121527777777777  9.13324652777778 0  9.41015625 0  L 12.58984375 0  C 12.7235243055556 0  12.8404947916667 0.0368923611111094  12.9407552083333 0.110677083333333  C 13.041015625 0.184461805555554  13.0959201388889 0.277777777777777  13.10546875 0.390625  L 13.5065104166667 2.78645833333333  C 13.9743923611111 2.92534722222222  14.4040798611111 3.0859375  14.7955729166667 3.26822916666667  L 16.8294270833333 1.875  C 16.9153645833333 1.796875  17.0299479166667 1.7578125  17.1731770833333 1.7578125  C 17.2973090277778 1.7578125  17.4166666666667 1.80121527777778  17.53125 1.88802083333333  C 18.7630208333333 2.92100694444444  19.55078125 3.65885416666667  19.89453125 4.1015625  C 19.9613715277778 4.17100694444444  19.9947916666667 4.26649305555555  19.9947916666667 4.38802083333333  C 19.9947916666667 4.4921875  19.9565972222222 4.59201388888889  19.8802083333333 4.6875  C 19.7369791666667 4.86979166666667  19.4934895833333 5.15842013888889  19.1497395833333 5.55338541666667  C 18.8059895833333 5.94835069444444  18.5481770833333 6.25434027777778  18.3763020833333 6.47135416666667  C 18.6245659722222 6.90538194444444  18.8203125 7.33072916666667  18.9635416666667 7.74739583333333  L 21.5846354166667 8.11197916666667  C 21.7087673611111 8.12934027777778  21.8090277777778 8.18359375  21.8854166666667 8.27473958333333  Z " fill-rule="nonzero" fill="#0000ff" stroke="none" transform="matrix(1 0 0 1 1425 320 )" />
  </g>
</svg>