<?xml version="1.0" encoding="utf-8"?>
<svg version="1.1" xmlns:xlink="http://www.w3.org/1999/xlink" width="65px" height="28px" xmlns="http://www.w3.org/2000/svg">
  <g transform="matrix(1 0 0 1 -266 -51 )">
    <path d="M 267 54  A 2 2 0 0 1 269 52 L 328 52  A 2 2 0 0 1 330 54 L 330 76  A 2 2 0 0 1 328 78 L 269 78  A 2 2 0 0 1 267 76 L 267 54  Z " fill-rule="nonzero" fill="#f0f7ff" stroke="none" />
    <path d="M 266.5 54  A 2.5 2.5 0 0 1 269 51.5 L 328 51.5  A 2.5 2.5 0 0 1 330.5 54 L 330.5 76  A 2.5 2.5 0 0 1 328 78.5 L 269 78.5  A 2.5 2.5 0 0 1 266.5 76 L 266.5 54  Z " stroke-width="1" stroke="#7abbff" fill="none" stroke-opacity="0.996078431372549" />
  </g>
</svg>