<?xml version="1.0" encoding="utf-8"?>
<svg version="1.1" xmlns:xlink="http://www.w3.org/1999/xlink" width="370px" height="38px" xmlns="http://www.w3.org/2000/svg">
  <defs>
    <mask fill="white" id="clip15">
      <path d="M 0 25  L 0 3  C 0 1.32  1.32 0  3 0  L 38.3846153846154 0  L 357 0  C 358.68 0  360 1.32  360 3  L 360 25  C 360 26.68  358.68 28  357 28  L 3 28  C 1.32 28  0 26.68  0 25  Z " fill-rule="evenodd" />
    </mask>
    <filter x="-5px" y="-5px" width="370px" height="38px" filterUnits="userSpaceOnUse" id="filter16">
      <feOffset dx="0" dy="0" in="SourceAlpha" result="shadowOffsetInner" />
      <feGaussianBlur stdDeviation="2.5" in="shadowOffsetInner" result="shadowGaussian" />
      <feComposite in2="shadowGaussian" operator="atop" in="SourceAlpha" result="shadowComposite" />
      <feColorMatrix type="matrix" values="0 0 0 0 0.250980392156863  0 0 0 0 0.619607843137255  0 0 0 0 1  0 0 0 0.247058823529412 0  " in="shadowComposite" />
    </filter>
    <g id="widget17">
      <path d="M 0 25  L 0 3  C 0 1.32  1.32 0  3 0  L 38.3846153846154 0  L 357 0  C 358.68 0  360 1.32  360 3  L 360 25  C 360 26.68  358.68 28  357 28  L 3 28  C 1.32 28  0 26.68  0 25  Z " fill-rule="nonzero" fill="#ffffff" stroke="none" />
      <path d="M 0 25  L 0 3  C 0 1.32  1.32 0  3 0  L 38.3846153846154 0  L 357 0  C 358.68 0  360 1.32  360 3  L 360 25  C 360 26.68  358.68 28  357 28  L 3 28  C 1.32 28  0 26.68  0 25  Z " stroke-width="2" stroke="#409eff" fill="none" mask="url(#clip15)" />
    </g>
  </defs>
  <g transform="matrix(1 0 0 1 5 5 )">
    <use xlink:href="#widget17" filter="url(#filter16)" />
    <use xlink:href="#widget17" />
  </g>
</svg>