<?xml version="1.0" encoding="utf-8"?>
<svg version="1.1" xmlns:xlink="http://www.w3.org/1999/xlink" width="360px" height="28px" xmlns="http://www.w3.org/2000/svg">
  <defs>
    <mask fill="white" id="clip18">
      <path d="M 0 25  L 0 3  C 0 1.32  1.32 0  3 0  L 38.3846153846154 0  L 357 0  C 358.68 0  360 1.32  360 3  L 360 25  C 360 26.68  358.68 28  357 28  L 3 28  C 1.32 28  0 26.68  0 25  Z " fill-rule="evenodd" />
    </mask>
  </defs>
  <g>
    <path d="M 0 25  L 0 3  C 0 1.32  1.32 0  3 0  L 38.3846153846154 0  L 357 0  C 358.68 0  360 1.32  360 3  L 360 25  C 360 26.68  358.68 28  357 28  L 3 28  C 1.32 28  0 26.68  0 25  Z " fill-rule="nonzero" fill="#f2f2f2" stroke="none" />
    <path d="M 0 25  L 0 3  C 0 1.32  1.32 0  3 0  L 38.3846153846154 0  L 357 0  C 358.68 0  360 1.32  360 3  L 360 25  C 360 26.68  358.68 28  357 28  L 3 28  C 1.32 28  0 26.68  0 25  Z " stroke-width="2" stroke="#e4e4e4" fill="none" mask="url(#clip18)" />
  </g>
</svg>