<?xml version="1.0" encoding="utf-8"?>
<svg version="1.1" xmlns:xlink="http://www.w3.org/1999/xlink" width="14px" height="14px" xmlns="http://www.w3.org/2000/svg">
  <g transform="matrix(1 0 0 1 -238 -52 )">
    <path d="M 9.16015625 3.67317708333333  C 9.27560763888889 3.78862847222222  9.33333333333333 3.92534722222222  9.33333333333333 4.08333333333333  L 9.33333333333333 9.91666666666667  C 9.33333333333333 10.0746527777778  9.27560763888889 10.2113715277778  9.16015625 10.3268229166667  C 9.04470486111111 10.4422743055556  8.90798611111111 10.5  8.75 10.5  C 8.62847222222222 10.5  8.51605902777778 10.4635416666667  8.41276041666667 10.390625  L 4.32942708333333 7.47395833333333  C 4.16536458333333 7.35850694444444  4.08333333333333 7.20052083333333  4.08333333333333 7  C 4.08333333333333 6.79947916666667  4.16536458333333 6.64149305555555  4.32942708333333 6.52604166666667  L 8.41276041666667 3.609375  C 8.51605902777778 3.53645833333333  8.62847222222222 3.5  8.75 3.5  C 8.90798611111111 3.5  9.04470486111111 3.55772569444444  9.16015625 3.67317708333333  Z M 11.580078125 11.580078125  C 11.6378038194444 11.5223524305556  11.6666666666667 11.4539930555556  11.6666666666667 11.375  L 11.6666666666667 2.625  C 11.6666666666667 2.54600694444444  11.6378038194444 2.47764756944444  11.580078125 2.419921875  C 11.5223524305556 2.36219618055555  11.4539930555556 2.33333333333333  11.375 2.33333333333333  L 2.625 2.33333333333333  C 2.54600694444445 2.33333333333333  2.47764756944445 2.36219618055555  2.419921875 2.419921875  C 2.36219618055556 2.47764756944444  2.33333333333333 2.54600694444444  2.33333333333333 2.625  L 2.33333333333333 11.375  C 2.33333333333333 11.4539930555556  2.36219618055556 11.5223524305556  2.419921875 11.580078125  C 2.47764756944445 11.6378038194444  2.54600694444445 11.6666666666667  2.625 11.6666666666667  L 11.375 11.6666666666667  C 11.4539930555556 11.6666666666667  11.5223524305556 11.6378038194444  11.580078125 11.580078125  Z M 13.2298177083333 0.770182291666667  C 13.7432725694444 1.28363715277778  14 1.90190972222222  14 2.625  L 14 11.375  C 14 12.0980902777778  13.7432725694444 12.7163628472222  13.2298177083333 13.2298177083333  C 12.7163628472222 13.7432725694444  12.0980902777778 14  11.375 14  L 2.625 14  C 1.90190972222222 14  1.28363715277778 13.7432725694444  0.770182291666667 13.2298177083333  C 0.256727430555556 12.7163628472222  0 12.0980902777778  0 11.375  L 0 2.625  C 0 1.90190972222222  0.256727430555556 1.28363715277778  0.770182291666667 0.770182291666667  C 1.28363715277778 0.256727430555555  1.90190972222222 0  2.625 0  L 11.375 0  C 12.0980902777778 0  12.7163628472222 0.256727430555555  13.2298177083333 0.770182291666667  Z " fill-rule="nonzero" fill="#5cce8a" stroke="none" transform="matrix(1 0 0 1 238 52 )" />
  </g>
</svg>