<?xml version="1.0" encoding="utf-8"?>
<svg version="1.1" xmlns:xlink="http://www.w3.org/1999/xlink" width="13px" height="11px" xmlns="http://www.w3.org/2000/svg">
  <g transform="matrix(1 0 0 1 -1838 -161 )">
    <path d="M 12.3923512747876 0  C 12.6501416430595 0  12.831208687441 0.101562499999996  12.935552407932 0.304687500000009  C 13.039896128423 0.518229166666659  12.9969310670444 0.700520833333337  12.8066572237961 0.851562500000002  L 8.26770538243621 4.70312500000001  L 8.26770538243621 6.74228855721395  L 8.26770538243621 10.5  C 8.26770538243621 10.71875  8.14801699716712 10.8723958333333  7.90864022662894 10.9609375  C 7.82884796978283 10.9869791666667  7.75212464589242 11  7.67847025495757 11  C 7.51274787535409 11  7.37464589235121 10.9505208333333  7.26416430594894 10.8515625  L 4.90722379603394 8.8515625  C 4.79060434372055 8.75260416666666  4.73229461756379 8.63541666666667  4.73229461756379 8.5  L 4.73229461756379 4.70312500000001  L 0.19334277620394 0.851562500000002  C 0.0030689329555571 0.700520833333337  -0.0398961284229813 0.518229166666659  0.0644475920680293 0.304687500000009  C 0.16879131255904 0.101562499999996  0.349858356940456 0  0.607648725212425 0  L 12.3923512747876 0  Z " fill-rule="nonzero" fill="#0069a6" stroke="none" transform="matrix(1 0 0 1 1838 161 )" />
  </g>
</svg>