<?xml version="1.0" encoding="utf-8"?>
<svg version="1.1" xmlns:xlink="http://www.w3.org/1999/xlink" width="73px" height="28px" xmlns="http://www.w3.org/2000/svg">
  <defs>
    <mask fill="white" id="clip8">
      <path d="M 0 25.1034482758621  L 0 2.89655172413793  C 0 1.27448275862068  1.31999999999994 0  3 0  L 70 0  C 71.6799999999998 0  73 1.27448275862068  73 2.89655172413793  L 73 25.1034482758621  C 73 26.7255172413793  71.6799999999998 28  70 28  L 28.3888888888891 28  L 3 28  C 1.31999999999994 28  0 26.7255172413793  0 25.1034482758621  Z " fill-rule="evenodd" />
    </mask>
  </defs>
  <g transform="matrix(1 0 0 1 -378 -206 )">
    <path d="M 0 25.1034482758621  L 0 2.89655172413793  C 0 1.27448275862068  1.31999999999994 0  3 0  L 70 0  C 71.6799999999998 0  73 1.27448275862068  73 2.89655172413793  L 73 25.1034482758621  C 73 26.7255172413793  71.6799999999998 28  70 28  L 28.3888888888891 28  L 3 28  C 1.31999999999994 28  0 26.7255172413793  0 25.1034482758621  Z " fill-rule="nonzero" fill="#ffffff" stroke="none" transform="matrix(1 0 0 1 378 206 )" />
    <path d="M 0 25.1034482758621  L 0 2.89655172413793  C 0 1.27448275862068  1.31999999999994 0  3 0  L 70 0  C 71.6799999999998 0  73 1.27448275862068  73 2.89655172413793  L 73 25.1034482758621  C 73 26.7255172413793  71.6799999999998 28  70 28  L 28.3888888888891 28  L 3 28  C 1.31999999999994 28  0 26.7255172413793  0 25.1034482758621  Z " stroke-width="2" stroke="#aaaaaa" fill="none" transform="matrix(1 0 0 1 378 206 )" mask="url(#clip8)" />
  </g>
</svg>