<?xml version="1.0" encoding="utf-8"?>
<svg version="1.1" xmlns:xlink="http://www.w3.org/1999/xlink" width="80px" height="35px" xmlns="http://www.w3.org/2000/svg">
  <g transform="matrix(1 0 0 1 -3894 -260 )">
    <path d="M 3894.5 263  A 2.5 2.5 0 0 1 3897 260.5 L 3971 260.5  A 2.5 2.5 0 0 1 3973.5 263 L 3973.5 292  A 2.5 2.5 0 0 1 3971 294.5 L 3897 294.5  A 2.5 2.5 0 0 1 3894.5 292 L 3894.5 263  Z " fill-rule="nonzero" fill="#f0f7ff" stroke="none" />
    <path d="M 3894.5 263  A 2.5 2.5 0 0 1 3897 260.5 L 3971 260.5  A 2.5 2.5 0 0 1 3973.5 263 L 3973.5 292  A 2.5 2.5 0 0 1 3971 294.5 L 3897 294.5  A 2.5 2.5 0 0 1 3894.5 292 L 3894.5 263  Z " stroke-width="1" stroke="#409eff" fill="none" />
  </g>
</svg>